#define absolute_width 18
#define absolute_height 18
static unsigned char absolute_bits[] = {
   0x80, 0x03, 0x00, 0x80, 0x02, 0x00, 0x80, 0x03, 0x00, 0x60, 0x0c, 0x00,
   0x1c, 0x70, 0x00, 0x1c, 0x50, 0x00, 0x1c, 0x70, 0x00, 0x22, 0x20, 0x00,
   0x42, 0x20, 0x00, 0xc7, 0x71, 0x00, 0xc7, 0x51, 0x00, 0xc7, 0x71, 0x00,
   0x00, 0x00, 0x00, 0xee, 0xdc, 0x01, 0x22, 0x89, 0x00, 0xe2, 0x88, 0x00,
   0xa2, 0x88, 0x00, 0x2e, 0x9d, 0x00};
