#define hrel_width 18
#define hrel_height 18
static unsigned char hrel_bits[] = {
   0x33, 0x00, 0x00, 0x33, 0x00, 0x00, 0x33, 0x00, 0x00, 0x33, 0x00, 0x00,
   0x3f, 0x00, 0x00, 0x3f, 0x00, 0x00, 0x33, 0x00, 0x00, 0x33, 0x00, 0x00,
   0x33, 0x00, 0x00, 0x80, 0x03, 0x00, 0x80, 0x02, 0x00, 0x80, 0x3b, 0x00,
   0x80, 0x09, 0x00, 0x80, 0xba, 0x00, 0x00, 0x88, 0x00, 0x00, 0xb8, 0x00,
   0x00, 0x80, 0x00, 0x00, 0x80, 0x03};
