#define reldelta_width 18
#define reldelta_height 18
static unsigned char reldelta_bits[] = {
   0x00, 0x00, 0x00, 0x00, 0x60, 0x00, 0x00, 0x58, 0x00, 0x00, 0x47, 0x00,
   0xe0, 0xa1, 0x00, 0x18, 0xa1, 0x00, 0x04, 0xf1, 0x01, 0x04, 0x01, 0x00,
   0x0a, 0x01, 0x00, 0x0a, 0x01, 0x00, 0x9f, 0x03, 0x00, 0xc0, 0x07, 0x00,
   0x00, 0x00, 0x00, 0xe0, 0x5d, 0x00, 0x29, 0x45, 0x00, 0xe4, 0x5d, 0x00,
   0xa2, 0x44, 0x00, 0x29, 0xdd, 0x01};
