#define sync_width 18
#define sync_height 18
static unsigned char sync_bits[] = {
   0xe0, 0x18, 0x03, 0xe0, 0xff, 0x03, 0xe0, 0x3c, 0x03, 0x00, 0x18, 0x00,
   0x78, 0x18, 0x00, 0xfe, 0x3f, 0x00, 0xfe, 0x3f, 0x00, 0xfe, 0x3f, 0x00,
   0x3e, 0x3c, 0x00, 0x00, 0x3c, 0x00, 0x14, 0x3c, 0x00, 0x01, 0x3c, 0x00,
   0x14, 0x3c, 0x00, 0x0a, 0x3c, 0x00, 0x04, 0x3c, 0x00, 0x0b, 0xff, 0x00,
   0x84, 0xff, 0x01, 0xc1, 0xff, 0x03};
