#define wait_width 18
#define wait_height 18
static unsigned char wait_bits[] = {
   0x00, 0xe0, 0x03, 0x00, 0x00, 0x01, 0x00, 0x80, 0x00, 0x00, 0x40, 0x00,
   0x00, 0xe0, 0x03, 0x00, 0x00, 0x00, 0x80, 0x07, 0x00, 0x00, 0x02, 0x00,
   0x00, 0x01, 0x00, 0x80, 0x07, 0x00, 0x38, 0x00, 0x00, 0x10, 0x00, 0x00,
   0x38, 0x00, 0x00, 0x00, 0x00, 0x00, 0x91, 0xb9, 0x03, 0x51, 0x12, 0x01,
   0xd5, 0x13, 0x01, 0x4a, 0x3a, 0x01};
